<?xml version="1.0" encoding="UTF-8" standalone="no"?>
<svg
   xmlns:dc="http://purl.org/dc/elements/1.1/"
   xmlns:cc="http://creativecommons.org/ns#"
   xmlns:rdf="http://www.w3.org/1999/02/22-rdf-syntax-ns#"
   xmlns:svg="http://www.w3.org/2000/svg"
   xmlns="http://www.w3.org/2000/svg"
   xmlns:sodipodi="http://sodipodi.sourceforge.net/DTD/sodipodi-0.dtd"
   xmlns:inkscape="http://www.inkscape.org/namespaces/inkscape"
   width="36"
   height="36"
   viewBox="0 0 36 36"
   fill="none"
   version="1.1"
   id="svg4"
   sodipodi:docname="facebook-icon.svg"
   inkscape:version="1.0.1 (1.0.1+r74)">
  <metadata
     id="metadata10">
    <rdf:RDF>
      <cc:Work
         rdf:about="">
        <dc:format>image/svg+xml</dc:format>
        <dc:type
           rdf:resource="http://purl.org/dc/dcmitype/StillImage" />
      </cc:Work>
    </rdf:RDF>
  </metadata>
  <defs
     id="defs8" />
  <sodipodi:namedview
     pagecolor="#ffffff"
     bordercolor="#666666"
     borderopacity="1"
     objecttolerance="10"
     gridtolerance="10"
     guidetolerance="10"
     inkscape:pageopacity="0"
     inkscape:pageshadow="2"
     inkscape:window-width="1805"
     inkscape:window-height="1241"
     id="namedview6"
     showgrid="false"
     inkscape:zoom="29.143969"
     inkscape:cx="18"
     inkscape:cy="18"
     inkscape:window-x="0"
     inkscape:window-y="27"
     inkscape:window-maximized="0"
     inkscape:current-layer="svg4"
     inkscape:document-rotation="0" />
  <path
     d="M18 0C8.07484 0 0 8.07484 0 18C0 27.9244 8.07484 36 18 36C27.9244 36 36 27.9244 36 18C36 8.07484 27.9259 0 18 0ZM22.4764 18.6337H19.548C19.548 23.3124 19.548 29.0715 19.548 29.0715H15.2086C15.2086 29.0715 15.2086 23.3682 15.2086 18.6337H13.1458V14.9447H15.2086V12.5585C15.2086 10.8496 16.0206 8.17925 19.5879 8.17925L22.8034 8.19157V11.7726C22.8034 11.7726 20.8494 11.7726 20.4695 11.7726C20.0896 11.7726 19.5494 11.9625 19.5494 12.7775V14.9454H22.8556L22.4764 18.6337Z"
     fill="#21125E"
     id="path2"
     style="fill:#4267b2;fill-opacity:1" />
</svg>
