<?xml version="1.0" encoding="utf-8"?>
<!-- Generator: Adobe Illustrator 24.0.1, SVG Export Plug-In . SVG Version: 6.00 Build 0)  -->
<svg version="1.1"
	 id="svg23" xmlns:cc="http://creativecommons.org/ns#" xmlns:dc="http://purl.org/dc/elements/1.1/" xmlns:inkscape="http://www.inkscape.org/namespaces/inkscape" xmlns:rdf="http://www.w3.org/1999/02/22-rdf-syntax-ns#" xmlns:sodipodi="http://sodipodi.sourceforge.net/DTD/sodipodi-0.dtd" xmlns:svg="http://www.w3.org/2000/svg"
	 xmlns="http://www.w3.org/2000/svg" xmlns:xlink="http://www.w3.org/1999/xlink" x="0px" y="0px" viewBox="0 0 150 83.9"
	 style="enable-background:new 0 0 150 83.9;" xml:space="preserve">
<style type="text/css">
	.st0{fill:#64513E;}
	.st1{fill:#AC9478;}
</style>
<sodipodi:namedview  bordercolor="#666666" borderopacity="1" gridtolerance="10" guidetolerance="10" id="namedview25" inkscape:current-layer="svg23" inkscape:cx="-175.53251" inkscape:cy="-96.524127" inkscape:pageopacity="0" inkscape:pageshadow="2" inkscape:window-height="1476" inkscape:window-maximized="0" inkscape:window-width="2133" inkscape:window-x="0" inkscape:window-y="27" inkscape:zoom="1.9868492" objecttolerance="10" pagecolor="#ffffff" showgrid="false">
	</sodipodi:namedview>
<g>
	<g>
		<path class="st0" d="M16.3,60.3c-0.2,0.1-0.6,0.1-0.9,0.1c-1,0-2.8-0.3-3.7-2.9l-0.6-1.4H5l-1.8,4.2h-1l6.2-14.5H9l4.8,11.8
			c0.7,1.7,1.2,2.2,2.4,2.3V60.3z M5.3,55.3h5.4L8,48.9L5.3,55.3z"/>
		<path class="st0" d="M17.2,52.6c0-1.3-0.2-2.2-1.5-2.2h-0.4V50h2c1.1,0,1.7,0.3,1.9,1h0.1c0.4-0.6,1.3-1.2,3-1.2
			c2.6,0,4,2.4,4,5.4s-1.3,5.4-4.2,5.4c-1.2,0-2.1-0.3-2.8-0.7v4.6h-2V52.6z M19.2,59c0.7,0.3,1.4,0.7,2.1,0.7c2,0,2.8-2,2.8-4.5
			s-0.8-4.5-2.5-4.5c-1.2,0-1.9,0.7-2.3,1.3V59z"/>
		<path class="st0" d="M32.5,49.8c3.1,0,4.8,2.4,4.8,5.4s-1.8,5.4-4.8,5.4c-3.1,0-4.8-2.4-4.8-5.4S29.4,49.8,32.5,49.8z M32.5,50.6
			c-1.7,0-2.8,2-2.8,4.5s1.1,4.5,2.8,4.5c1.7,0,2.8-2,2.8-4.5S34.1,50.6,32.5,50.6z"/>
		<path class="st0" d="M44.6,60.3h-0.4l-3.7-8.3v8.3h-0.9V50h2.1l3.3,7.3l3.3-7.3h2v7c0,1.7,0.7,3.3,1.7,3.3v0.4
			c-2.8,0-3.6-1.4-3.6-3.7v-4.7L44.6,60.3z"/>
		<path class="st0" d="M60,60.3l-0.8-1h-0.1c-0.4,0.6-1.4,1.2-3.1,1.2c-1.2,0-3.2-0.7-3.2-3.1c0-2.4,2.6-3.1,5.6-3.1h0.7
			c0-3.1-1-3.7-2.3-3.7c-1.2,0-2.1,0.4-2.4,1.9h-1c0-0.8,0-1.4,0.6-2c0.6-0.6,2-0.8,3.3-0.8c2,0,3.9,0.7,3.9,4.6v5.9H60z M59.1,55.3
			h-0.7c-2.2,0-3.5,0.9-3.5,2.2c0,1.4,1,2.1,2.1,2.1s1.7-0.7,2.1-1.3V55.3z"/>
		<path class="st0" d="M65.2,50.9c-1.3,0-2.3,0.8-2.3,2.2h-0.4v-1.3c0-0.9,0.3-1.8,1.7-1.8h7.8v0.9h-3.6v9.5h-2v-9.5H65.2z"/>
		<path class="st0" d="M88.7,47.8l-7,12.6h-2V48.4c0-1.3-0.2-2.2-1.5-2.2h-0.4v-0.4h2c1.5,0,2,0.4,2,2.6v9.9l7-12.6h2v14.5h-2V47.8z
			"/>
		<path class="st0" d="M95.2,50.9c-1.3,0-2.3,0.8-2.3,2.2h-0.4v-1.3c0-0.9,0.3-1.8,1.7-1.8h7.8v0.9h-3.6v9.5h-2v-9.5H95.2z"/>
		<path class="st0" d="M109.7,60.3l-0.8-1h-0.1c-0.4,0.6-1.4,1.2-3.1,1.2c-1.2,0-3.2-0.7-3.2-3.1c0-2.4,2.6-3.1,5.6-3.1h0.7
			c0-3.1-1-3.7-2.3-3.7c-1.2,0-2.1,0.4-2.4,1.9h-1c0-0.8,0-1.4,0.6-2c0.6-0.6,2-0.8,3.3-0.8c2,0,3.9,0.7,3.9,4.6v5.9H109.7z
			 M108.8,55.3h-0.7c-2.2,0-3.5,0.9-3.5,2.2c0,1.4,1,2.1,2.1,2.1c1.1,0,1.7-0.7,2.1-1.3V55.3z"/>
		<path class="st0" d="M116.8,53.5c0,5.3-0.9,7-3,7c-0.3,0-0.9-0.1-1.2-0.2v-0.6c1.7-0.1,2.3-1.9,2.3-7.2c0-1.3-0.2-2.2-1.6-2.2V50
			h8.9v10.4h-2v-9.5h-3.5V53.5z"/>
		<path class="st0" d="M132.4,52l-4.6,8.4h-2v-7.7c0-1.3-0.2-2.2-1.5-2.2h-0.3V50h1.9c1.5,0,2,0.4,2,2.6v5.7l4.6-8.4h2v10.4h-2V52z"
			/>
		<path class="st0" d="M144.5,52l-4.6,8.4h-2v-7.7c0-1.3-0.2-2.2-1.5-2.2H136V50h1.9c1.5,0,2,0.4,2,2.6v5.7l4.6-8.4h2v10.4h-2V52z"
			/>
	</g>
	<g>
		<path class="st1" d="M19.7,69.9v-0.2h4.8v5.1H25c0.2,0,0.4,0.2,0.4,0.4v1.9h-0.5c-0.1-1.3-0.5-1.8-1.3-1.8h-2.9
			c-0.8,0-1.1,0.5-1.3,1.8h-0.5v-1.9c0-0.2,0.2-0.4,0.4-0.4h0.4c0.5-1.2,0.7-2.6,0.7-3.7C20.6,70.4,20.5,69.9,19.7,69.9z M23.4,74.8
			v-4.6h-1.9c0,2-0.2,3.5-0.7,4.6H23.4z"/>
		<path class="st1" d="M27.9,71.6c0,2.9-0.5,3.8-1.6,3.8c-0.2,0-0.5-0.1-0.7-0.1V75c0.9-0.1,1.3-1,1.3-3.9c0-0.7-0.1-1.2-0.8-1.2
			v-0.2h4.8v5.6h-1.1v-5.1h-1.9V71.6z"/>
		<path class="st1" d="M36.7,75.3h-1.1v-2.4h-0.9l-0.7,1.4c-0.4,0.7-0.8,1.1-1.5,1.1c-0.2,0-0.5-0.1-0.7-0.1V75
			c0.5-0.1,0.9-0.5,1.1-1l0.7-1.3c-0.7-0.1-1.4-0.7-1.4-1.5c0-1.3,1.1-1.6,2.4-1.6h2.8v0.2c-0.7,0-0.8,0.5-0.8,1.2V75.3z M35.6,70.2
			c-0.2-0.1-0.5-0.1-0.8-0.1c-0.8,0-1.4,0.4-1.4,1.2c0,0.8,0.5,1.2,1.4,1.2c0.2,0,0.6-0.1,0.8-0.1V70.2z"/>
		<path class="st1" d="M41.3,69.9v-0.2H46v5.1h0.5c0.2,0,0.4,0.2,0.4,0.4v1.9h-0.5c-0.1-1.3-0.5-1.8-1.3-1.8h-2.9
			c-0.8,0-1.1,0.5-1.3,1.8h-0.5v-1.9c0-0.2,0.2-0.4,0.4-0.4h0.4c0.5-1.2,0.7-2.6,0.7-3.7C42.1,70.4,42,69.9,41.3,69.9z M44.9,74.8
			v-4.6H43c0,2-0.2,3.5-0.7,4.6H44.9z"/>
		<path class="st1" d="M50,69.5c1.7,0,2.6,1.3,2.6,2.9c0,1.6-1,2.9-2.6,2.9c-1.7,0-2.6-1.3-2.6-2.9C47.4,70.8,48.3,69.5,50,69.5z
			 M50,70c-0.9,0-1.5,1.1-1.5,2.4c0,1.4,0.6,2.4,1.5,2.4c0.9,0,1.5-1.1,1.5-2.4C51.5,71.1,50.9,70,50,70z"/>
		<path class="st1" d="M56.6,75.3h-0.2l-2-4.5v4.5h-0.5v-5.6H55l1.8,3.9l1.8-3.9h1.1v3.8c0,0.9,0.4,1.8,0.9,1.8v0.2
			c-1.5,0-2-0.8-2-2v-2.6L56.6,75.3z"/>
		<path class="st1" d="M64.9,75.3l-0.4-0.5h-0.1c-0.2,0.3-0.8,0.7-1.7,0.7c-0.7,0-1.7-0.4-1.7-1.7s1.4-1.7,3-1.7h0.4
			c0-1.7-0.5-2-1.3-2c-0.7,0-1.1,0.2-1.3,1h-0.5c0-0.4,0-0.8,0.3-1.1s1.1-0.4,1.8-0.4c1.1,0,2.1,0.4,2.1,2.5v3.2H64.9z M64.4,72.5
			h-0.4c-1.2,0-1.9,0.5-1.9,1.2c0,0.8,0.5,1.1,1.1,1.1c0.6,0,0.9-0.4,1.1-0.7V72.5z"/>
		<path class="st1" d="M73.8,70.7l-2.5,4.5h-1.1v-4.2c0-0.7-0.1-1.2-0.8-1.2h-0.2v-0.2h1c0.8,0,1.1,0.2,1.1,1.4v3.1l2.5-4.5h1.1v5.6
			h-1.1V70.7z"/>
		<path class="st1" d="M83.4,70.7l-2.5,4.5h-1.1v-4.2c0-0.7-0.1-1.2-0.8-1.2h-0.2v-0.2h1c0.8,0,1.1,0.2,1.1,1.4v3.1l2.5-4.5h1.1v5.6
			h-1.1V70.7z"/>
		<path class="st1" d="M89.8,72.7h-2.4v2.6h-1.1v-4.2c0-0.7-0.1-1.2-0.8-1.2h-0.2v-0.2h1c0.8,0,1.1,0.2,1.1,1.4v1.1h2.4v-2.6h1.1
			v4.2c0,0.7,0.1,1.2,0.8,1.2h0.2v0.2h-1c-0.8,0-1.1-0.2-1.1-1.4V72.7z"/>
		<path class="st1" d="M93.4,70.1c-0.7,0-1.3,0.4-1.3,1.2H92v-0.7c0-0.5,0.2-1,0.9-1h4.2v0.5h-2v5.1H94v-5.1H93.4z"/>
		<path class="st1" d="M102.2,72.6h-3.6c0,1.3,0.6,2.3,1.6,2.3c0.8,0,1.3-0.4,1.7-1l0.2,0.2c-0.5,0.9-1.3,1.3-2.1,1.3
			c-1.7,0-2.5-1.3-2.5-2.9c0-1.6,0.8-2.9,2.3-2.9c1.6,0,2.4,1,2.4,2.6L102.2,72.6z M101.2,72.2c0-1.3-0.4-2.1-1.3-2.1
			c-0.7,0-1.3,0.9-1.3,2.1H101.2z"/>
		<path class="st1" d="M103.7,71.1c0-0.7-0.1-1.2-0.8-1.2h-0.2v-0.2h1.1c0.6,0,0.9,0.2,1,0.5h0.1c0.2-0.3,0.7-0.7,1.6-0.7
			c1.4,0,2.1,1.3,2.1,2.9c0,1.6-0.7,2.9-2.3,2.9c-0.7,0-1.1-0.2-1.5-0.4v2.5h-1.1V71.1z M104.8,74.5c0.4,0.2,0.8,0.4,1.1,0.4
			c1.1,0,1.5-1.1,1.5-2.4c0-1.4-0.4-2.4-1.4-2.4c-0.7,0-1,0.4-1.3,0.7V74.5z"/>
		<path class="st1" d="M111,71.9h0.9c1.4,0,2.4,0.4,2.4,1.7c0,1.3-1.1,1.7-2.4,1.7h-2v-4.2c0-0.7-0.1-1.2-0.8-1.2h-0.2v-0.2h1
			c0.8,0,1.1,0.2,1.1,1.4V71.9z M111,74.7c0.2,0.1,0.5,0.1,0.8,0.1c0.9,0,1.4-0.4,1.4-1.3c0-0.9-0.5-1.3-1.4-1.3
			c-0.2,0-0.6,0.1-0.8,0.1V74.7z"/>
		<path class="st1" d="M119.7,72.6h-3.6c0,1.3,0.6,2.3,1.6,2.3c0.8,0,1.3-0.4,1.7-1l0.2,0.2c-0.5,0.9-1.3,1.3-2.1,1.3
			c-1.7,0-2.5-1.3-2.5-2.9c0-1.6,0.8-2.9,2.3-2.9c1.6,0,2.4,1,2.4,2.6L119.7,72.6z M118.7,72.2c0-1.3-0.4-2.1-1.3-2.1
			c-0.7,0-1.3,0.9-1.3,2.1H118.7z"/>
		<path class="st1" d="M121.2,71.1c0-0.7-0.1-1.2-0.8-1.2h-0.2v-0.2h1.1c0.6,0,0.9,0.2,1,0.5h0.1c0.2-0.3,0.7-0.7,1.6-0.7
			c1.4,0,2.1,1.3,2.1,2.9c0,1.6-0.7,2.9-2.3,2.9c-0.7,0-1.1-0.2-1.5-0.4v2.5h-1.1V71.1z M122.3,74.5c0.4,0.2,0.8,0.4,1.1,0.4
			c1.1,0,1.5-1.1,1.5-2.4c0-1.4-0.4-2.4-1.4-2.4c-0.7,0-1,0.4-1.3,0.7V74.5z"/>
		<path class="st1" d="M130.9,75.3l-0.4-0.5h-0.1c-0.2,0.3-0.8,0.7-1.7,0.7c-0.7,0-1.7-0.4-1.7-1.7s1.4-1.7,3-1.7h0.4
			c0-1.7-0.5-2-1.3-2c-0.7,0-1.1,0.2-1.3,1h-0.5c0-0.4,0-0.8,0.3-1.1c0.3-0.3,1.1-0.4,1.8-0.4c1.1,0,2.1,0.4,2.1,2.5v3.2H130.9z
			 M130.4,72.5H130c-1.2,0-1.9,0.5-1.9,1.2c0,0.8,0.5,1.1,1.1,1.1c0.6,0,0.9-0.4,1.1-0.7V72.5z"/>
	</g>
	<g>
		<path class="st1" d="M3,72.8c0,0,2.3,0.6,5.5,0.6s6.4-0.9,6.4-0.9s-4.1-0.3-6.6-0.3S3,72.8,3,72.8z"/>
	</g>
	<g>
		<path class="st1" d="M135.5,72.8c0,0,2.3,0.6,5.5,0.6c3.1,0,6.4-0.9,6.4-0.9s-4.1-0.3-6.6-0.3C138.4,72.2,135.5,72.8,135.5,72.8z"
			/>
	</g>
	<g>
		<g>
			<path class="st1" d="M75,43.2l-0.4-1.2c0,0-0.5-1.7-1.3-3c-0.5-0.8-1.6-1.2-2.6-0.8c-0.8,0.3-1.7,0.2-2.3-0.2
				c-0.6-0.4-1-1.2-1-2.1c0-1.8,1.7-2.7,2.6-2.8l0.8-0.2l-0.4,0.7C70.2,34,70,34.8,70.2,35v0c0.1,0,0.2,0.1,0.4,0
				c0.6-0.2,1.4-0.9,1.9-2l0.1-0.2h4.6l0.1,0.2c0.5,1.1,1.3,1.8,1.9,2c0.2,0.1,0.4,0.1,0.4,0c0.2-0.1,0-1-0.3-1.5l-0.4-0.7l0.8,0.2
				c0.9,0.2,2.6,1,2.6,2.8c0,0.9-0.3,1.7-1,2.1c-0.6,0.4-1.5,0.5-2.3,0.2c-1-0.4-2.1,0-2.6,0.8c-0.8,1.3-1.3,3-1.3,3L75,43.2z
				 M71.6,37.2c1,0,1.9,0.5,2.4,1.3c0.4,0.7,0.8,1.5,1,2.2c0.2-0.6,0.6-1.4,1-2.2c0.7-1.2,2.1-1.6,3.5-1.2c0.6,0.2,1.2,0.2,1.6-0.1
				c0.4-0.3,0.7-0.8,0.7-1.5c0-1-0.7-1.5-1.3-1.8c0.2,0.6,0.3,1.3-0.3,1.7c-0.3,0.2-0.6,0.2-1.1,0.1c-0.7-0.2-1.6-0.9-2.3-2.2h-3.6
				c-0.6,1.3-1.6,2-2.3,2.2c-0.4,0.1-0.8,0.1-1.1-0.1c-0.6-0.4-0.5-1.1-0.3-1.7c-0.6,0.3-1.3,0.8-1.3,1.8c0,0.7,0.2,1.2,0.7,1.5
				c0.4,0.3,1,0.3,1.6,0.1C70.9,37.3,71.3,37.2,71.6,37.2z"/>
		</g>
		<g>
			<path class="st1" d="M76.6,31.6h-3.2c-0.1,0-0.2,0-0.3-0.1c-0.1-0.1-0.1-0.2-0.1-0.3c0.1-1.7-0.7-3.2-2.4-4.7
				c-0.8-0.7-2.2-0.4-2.9-0.1c0.5,0.5,1.1,1.3,1.1,2.7c0,1.3-1.7,2.4-3.7,2.4c-2,0-3.1-2-3.1-3.9c0-2,1.2-5.5,5.8-6
				c2.1-0.2,3.4,0.2,4.2,0.7l-1.9-5.6c0-0.1,0-0.2,0-0.3l4.6-9.4c0.1-0.3,0.5-0.3,0.7,0l4.6,9.4c0,0.1,0,0.2,0,0.3l-1.9,5.6
				c0.8-0.5,2.1-0.9,4.2-0.7c4.6,0.4,5.8,4,5.8,6c0,1.9-1.2,3.9-3.1,3.9c-2,0-3.7-1.1-3.7-2.4c0-1.4,0.6-2.2,1.1-2.7
				c-0.8-0.3-2.1-0.6-2.9,0.1c-1.7,1.5-2.5,3.1-2.4,4.7c0,0.1,0,0.2-0.1,0.3C76.8,31.5,76.7,31.6,76.6,31.6z M73.8,30.8h2.4
				c0-1.8,0.9-3.4,2.7-5c1.5-1.3,4.2-0.1,4.3,0c0.1,0.1,0.2,0.2,0.2,0.3c0,0.1-0.1,0.3-0.2,0.3c0,0-1.3,0.7-1.3,2.4
				c0,0.9,1.4,1.7,2.9,1.7c1.5,0,2.4-1.6,2.4-3.2c0-3.7-3.2-5.1-5.1-5.2l0,0c-3.7-0.4-4.6,1.5-4.6,1.6c-0.1,0.2-0.3,0.3-0.5,0.2
				c-0.2-0.1-0.3-0.3-0.2-0.5l2.3-7L75,7.9l-4.2,8.6l2.3,7c0.1,0.2,0,0.4-0.2,0.5c-0.2,0.1-0.4,0-0.5-0.2c0-0.1-0.9-1.9-4.6-1.5
				c-1.9,0.2-5.1,1.5-5.1,5.2c0,1.5,0.9,3.2,2.4,3.2c1.5,0,2.9-0.8,2.9-1.7c0-1.8-1.2-2.4-1.3-2.4c-0.1-0.1-0.2-0.2-0.2-0.3
				c0-0.1,0.1-0.3,0.2-0.3c0.1-0.1,2.8-1.3,4.3,0C72.9,27.4,73.8,29,73.8,30.8z"/>
		</g>
		<g>
			<path class="st1" d="M73,33.4h-0.8c-0.5,0-1-0.4-1-1v-0.7c0-0.5,0.4-1,1-1h1.3v0.7h-1.3c-0.1,0-0.2,0.1-0.2,0.2v0.7
				c0,0.1,0.1,0.2,0.2,0.2H73V33.4z"/>
		</g>
		<g>
			<path class="st1" d="M77.9,33.4h-0.8v-0.7h0.8c0.1,0,0.2-0.1,0.2-0.2v-0.7c0-0.1-0.1-0.2-0.2-0.2h-1.3v-0.7h1.3c0.5,0,1,0.4,1,1
				v0.7C78.8,33,78.4,33.4,77.9,33.4z"/>
		</g>
	</g>
</g>
</svg>
