<?xml version="1.0" encoding="UTF-8" standalone="no"?>
<svg
   xmlns:dc="http://purl.org/dc/elements/1.1/"
   xmlns:cc="http://creativecommons.org/ns#"
   xmlns:rdf="http://www.w3.org/1999/02/22-rdf-syntax-ns#"
   xmlns:svg="http://www.w3.org/2000/svg"
   xmlns="http://www.w3.org/2000/svg"
   xmlns:sodipodi="http://sodipodi.sourceforge.net/DTD/sodipodi-0.dtd"
   xmlns:inkscape="http://www.inkscape.org/namespaces/inkscape"
   width="24"
   height="24"
   viewBox="0 0 24 24"
   fill="none"
   version="1.1"
   id="svg4"
   sodipodi:docname="plus.svg"
   inkscape:version="1.0.1 (1.0.1+r74)">
  <metadata
     id="metadata10">
    <rdf:RDF>
      <cc:Work
         rdf:about="">
        <dc:format>image/svg+xml</dc:format>
        <dc:type
           rdf:resource="http://purl.org/dc/dcmitype/StillImage" />
      </cc:Work>
    </rdf:RDF>
  </metadata>
  <defs
     id="defs8" />
  <sodipodi:namedview
     pagecolor="#ffffff"
     bordercolor="#666666"
     borderopacity="1"
     objecttolerance="10"
     gridtolerance="10"
     guidetolerance="10"
     inkscape:pageopacity="0"
     inkscape:pageshadow="2"
     inkscape:window-width="1189"
     inkscape:window-height="1106"
     id="namedview6"
     showgrid="false"
     inkscape:zoom="7.4246212"
     inkscape:cx="8.6694361"
     inkscape:cy="-0.75885358"
     inkscape:window-x="0"
     inkscape:window-y="27"
     inkscape:window-maximized="0"
     inkscape:current-layer="svg4" />
  <path
     fill-rule="evenodd"
     clip-rule="evenodd"
     d="M13.5 10.5V1.5C13.5 0.671997 12.8281 0 12 0C11.1719 0 10.5 0.671997 10.5 1.5V10.5H1.5C0.671875 10.5 0 11.172 0 12C0 12.828 0.671875 13.5 1.5 13.5H10.5V22.5C10.5 23.328 11.1719 24 12 24C12.8281 24 13.5 23.328 13.5 22.5V13.5H22.5C23.3281 13.5 24 12.828 24 12C24 11.172 23.3281 10.5 22.5 10.5H13.5Z"
     fill="#21125E"
     id="path2"
     style="fill:#64513d;fill-opacity:1" />
</svg>
