<?xml version="1.0" encoding="UTF-8" standalone="no"?>
<svg
   xmlns:dc="http://purl.org/dc/elements/1.1/"
   xmlns:cc="http://creativecommons.org/ns#"
   xmlns:rdf="http://www.w3.org/1999/02/22-rdf-syntax-ns#"
   xmlns:svg="http://www.w3.org/2000/svg"
   xmlns="http://www.w3.org/2000/svg"
   xmlns:sodipodi="http://sodipodi.sourceforge.net/DTD/sodipodi-0.dtd"
   xmlns:inkscape="http://www.inkscape.org/namespaces/inkscape"
   width="36"
   height="36"
   viewBox="0 0 36 36"
   fill="none"
   version="1.1"
   id="svg12"
   sodipodi:docname="trashIcon.svg"
   inkscape:version="1.0.1 (1.0.1+r74)">
  <metadata
     id="metadata18">
    <rdf:RDF>
      <cc:Work
         rdf:about="">
        <dc:format>image/svg+xml</dc:format>
        <dc:type
           rdf:resource="http://purl.org/dc/dcmitype/StillImage" />
      </cc:Work>
    </rdf:RDF>
  </metadata>
  <defs
     id="defs16" />
  <sodipodi:namedview
     pagecolor="#ffffff"
     bordercolor="#666666"
     borderopacity="1"
     objecttolerance="10"
     gridtolerance="10"
     guidetolerance="10"
     inkscape:pageopacity="0"
     inkscape:pageshadow="2"
     inkscape:window-width="1133"
     inkscape:window-height="912"
     id="namedview14"
     showgrid="false"
     inkscape:zoom="28"
     inkscape:cx="18"
     inkscape:cy="18"
     inkscape:window-x="0"
     inkscape:window-y="27"
     inkscape:window-maximized="0"
     inkscape:current-layer="svg12" />
  <circle
     cx="18"
     cy="18"
     r="18"
     fill="#FFF"
     id="circle2" />
  <path
     d="M 26.0095,11.5905 H 22.2644 V 10.9799 C 22.2644,9.88816 21.3762,9 20.2845,9 h -3.56 c -1.0917,0 -1.9798,0.88816 -1.9798,1.9799 v 0.6106 h -3.7451 c -0.2776,0 -0.4996,0.222 -0.4996,0.4995 0,0.2776 0.222,0.4996 0.4996,0.4996 h 0.9029 v 11.7385 c 0,1.4729 1.1991,2.6719 2.6719,2.6719 h 7.8602 c 1.4729,0 2.6719,-1.199 2.6719,-2.6719 V 22.166334 12.5896 h 0.903 c 0.2775,0 0.4995,-0.222 0.4995,-0.4996 0,-0.2775 -0.222,-0.4995 -0.4995,-0.4995 z M 15.7438,10.9799 c 0,-0.5403 0.4404,-0.98072 0.9807,-0.98072 h 3.56 c 0.5403,0 0.9807,0.44042 0.9807,0.98072 v 0.6106 h -5.5214 z m 8.3635,13.3482 c 0,0.9215 -0.7512,1.6727 -1.6727,1.6727 h -7.8602 c -0.9214,0 -1.6727,-0.7512 -1.6727,-1.6727 V 12.5896 H 24.111 v 11.7385 z"
     fill="#323232"
     id="path4"
     sodipodi:nodetypes="scsssscssscssssccsssssssccscssscccc"
     style="fill:#64513d;fill-opacity:1" />
  <path
     d="M18.5045 24.2108C18.782 24.2108 19.0041 23.9887 19.0041 23.7112V14.8814C19.0041 14.6039 18.782 14.3818 18.5045 14.3818C18.2269 14.3818 18.0049 14.6039 18.0049 14.8814V23.7075C18.0049 23.985 18.2269 24.2108 18.5045 24.2108Z"
     fill="#323232"
     id="path6"
     style="fill:#64513d;fill-opacity:1" />
  <path
     d="M15.2447 23.6595C15.5223 23.6595 15.7443 23.4375 15.7443 23.16V15.4293C15.7443 15.1517 15.5223 14.9297 15.2447 14.9297C14.9672 14.9297 14.7451 15.1517 14.7451 15.4293V23.16C14.7451 23.4375 14.9709 23.6595 15.2447 23.6595Z"
     fill="#323232"
     id="path8"
     style="fill:#64513d;fill-opacity:1" />
  <path
     d="M21.7652 23.6595C22.0428 23.6595 22.2648 23.4375 22.2648 23.16V15.4293C22.2648 15.1517 22.0428 14.9297 21.7652 14.9297C21.4877 14.9297 21.2656 15.1517 21.2656 15.4293V23.16C21.2656 23.4375 21.4877 23.6595 21.7652 23.6595Z"
     fill="#323232"
     id="path10"
     style="fill:#64513d;fill-opacity:1" />
</svg>
